# xmcd
#
# Track frame offsets:
#	150
#	16017
#	25947
#	41386
#	53926
#	68280
#	80672
#	98073
#	108923
#	127674
#	144995
#	159922
#	171267
#
# Disc length: 2472 seconds
#
# Revision: 0
# Processed by: cddbd v1.5.1PL0 Copyright (c) Steve Scherf et al.
# Submitted via: dBpowerAMP V4.0
#
DISCID=8f09a60d
DTITLE=Big Dave - Tellin' you
DYEAR=1900
DGENRE=Blues
TTITLE0=Sweet Child
TTITLE1=Yes baby
TTITLE2=Tomorrow night
TTITLE3=Take two
TTITLE4=Let's rock and roll
TTITLE5=Pretty lill' thing
TTITLE6=Lucky number
TTITLE7=Pocket full of money
TTITLE8=Mailman blues
TTITLE9=Dig myself a hole
TTITLE10=Shake for me
TTITLE11=Light feet
TTITLE12=Tired of living
EXTD=
EXTT0=
EXTT1=
EXTT2=
EXTT3=
EXTT4=
EXTT5=
EXTT6=
EXTT7=
EXTT8=
EXTT9=
EXTT10=
EXTT11=
EXTT12=
PLAYORDER=
